<svg xmlns="http://www.w3.org/2000/svg" viewBox="0 0 800 440">
  <defs>
    <linearGradient id="tvbg" x1="0%" y1="0%" x2="100%" y2="100%">
      <stop offset="0%" stop-color="#1F1812"/>
      <stop offset="50%" stop-color="#2A1E14"/>
      <stop offset="100%" stop-color="#161008"/>
    </linearGradient>
    <radialGradient id="tvfaceglow" cx="38%" cy="46%" r="40%">
      <stop offset="0%" stop-color="#C4956A" stop-opacity="0.13"/>
      <stop offset="100%" stop-color="#C4956A" stop-opacity="0"/>
    </radialGradient>
    <linearGradient id="tvbar1" x1="0%" y1="0%" x2="100%" y2="0%">
      <stop offset="0%" stop-color="#C4956A"/>
      <stop offset="100%" stop-color="#C4956A" stop-opacity="0.25"/>
    </linearGradient>
    <linearGradient id="tvbar2" x1="0%" y1="0%" x2="100%" y2="0%">
      <stop offset="0%" stop-color="#6A9AC4"/>
      <stop offset="100%" stop-color="#6A9AC4" stop-opacity="0.25"/>
    </linearGradient>
    <linearGradient id="tvbar3" x1="0%" y1="0%" x2="100%" y2="0%">
      <stop offset="0%" stop-color="#9AC46A"/>
      <stop offset="100%" stop-color="#9AC46A" stop-opacity="0.25"/>
    </linearGradient>
    <filter id="tvglow" x="-30%" y="-30%" width="160%" height="160%">
      <feGaussianBlur stdDeviation="2.5" result="blur"/>
      <feMerge><feMergeNode in="blur"/><feMergeNode in="SourceGraphic"/></feMerge>
    </filter>
  </defs>

  <rect width="800" height="440" fill="url(#tvbg)"/>
  <rect width="800" height="440" fill="url(#tvfaceglow)"/>
  <line x1="455" y1="30" x2="455" y2="410" stroke="#C4956A" stroke-width="0.5" stroke-opacity="0.18"/>

  <!-- Scan brackets -->
  <g stroke="#C4956A" stroke-width="1.8" fill="none" stroke-opacity="0.55">
    <path d="M155,55 L155,80 M155,55 L180,55"/>
    <path d="M390,55 L390,80 M390,55 L365,55"/>
    <path d="M155,385 L155,360 M155,385 L180,385"/>
    <path d="M390,385 L390,360 M390,385 L365,385"/>
  </g>

  <!-- Face -->
  <ellipse cx="272" cy="218" rx="100" ry="118" fill="#C4956A" fill-opacity="0.025" stroke="#C4956A" stroke-width="0.9" stroke-opacity="0.22"/>
  <ellipse cx="238" cy="192" rx="20" ry="13" fill="none" stroke="#C4956A" stroke-width="0.6" stroke-opacity="0.22"/>
  <ellipse cx="306" cy="192" rx="20" ry="13" fill="none" stroke="#C4956A" stroke-width="0.6" stroke-opacity="0.22"/>
  <path d="M268,204 L264,238 Q272,244 280,238 L276,204" fill="none" stroke="#C4956A" stroke-width="0.6" stroke-opacity="0.2"/>
  <path d="M248,262 Q272,273 296,262" fill="none" stroke="#C4956A" stroke-width="0.7" stroke-opacity="0.22"/>
  <rect x="172" y="192" width="218" height="1" fill="#C4956A" fill-opacity="0.45" filter="url(#tvglow)"/>

  <!-- Mesh lines -->
  <g stroke="#C4956A" stroke-width="0.4" stroke-opacity="0.22">
    <line x1="220" y1="165" x2="238" y2="160"/><line x1="238" y1="160" x2="256" y2="162"/>
    <line x1="288" y1="162" x2="306" y2="160"/><line x1="306" y1="160" x2="324" y2="165"/>
    <line x1="220" y1="165" x2="218" y2="184"/><line x1="256" y1="162" x2="258" y2="183"/>
    <line x1="288" y1="162" x2="286" y2="183"/><line x1="324" y1="165" x2="326" y2="184"/>
    <line x1="218" y1="184" x2="238" y2="181"/><line x1="238" y1="181" x2="258" y2="184"/>
    <line x1="286" y1="183" x2="306" y2="181"/><line x1="306" y1="181" x2="326" y2="184"/>
    <line x1="218" y1="184" x2="214" y2="218"/><line x1="326" y1="184" x2="330" y2="218"/>
    <line x1="214" y1="218" x2="218" y2="252"/><line x1="330" y1="218" x2="326" y2="252"/>
    <line x1="248" y1="252" x2="260" y2="248"/><line x1="260" y1="248" x2="272" y2="247"/>
    <line x1="272" y1="247" x2="284" y2="248"/><line x1="284" y1="248" x2="296" y2="252"/>
    <line x1="248" y1="268" x2="260" y2="271"/><line x1="260" y1="271" x2="272" y2="272"/>
    <line x1="272" y1="272" x2="284" y2="271"/><line x1="284" y1="271" x2="296" y2="268"/>
    <line x1="248" y1="252" x2="248" y2="268"/><line x1="296" y1="252" x2="296" y2="268"/>
    <line x1="248" y1="268" x2="240" y2="302"/><line x1="296" y1="268" x2="304" y2="302"/>
    <line x1="262" y1="240" x2="255" y2="218"/><line x1="282" y1="240" x2="289" y2="218"/>
    <line x1="272" y1="100" x2="256" y2="120"/><line x1="272" y1="100" x2="288" y2="120"/>
    <line x1="238" y1="160" x2="256" y2="120"/><line x1="306" y1="160" x2="288" y2="120"/>
  </g>

  <!-- AU nodes -->
  <g fill="#C4956A" filter="url(#tvglow)">
    <circle cx="272" cy="100" r="2.5" fill-opacity="0.75"/>
    <circle cx="252" cy="120" r="2" fill-opacity="0.55"/>
    <circle cx="292" cy="120" r="2" fill-opacity="0.55"/>
    <circle cx="220" cy="165" r="3" fill-opacity="0.9"/>
    <circle cx="238" cy="160" r="3" fill-opacity="0.9"/>
    <circle cx="256" cy="162" r="2.5" fill-opacity="0.8"/>
    <circle cx="288" cy="162" r="2.5" fill-opacity="0.8"/>
    <circle cx="306" cy="160" r="3" fill-opacity="0.9"/>
    <circle cx="324" cy="165" r="3" fill-opacity="0.9"/>
    <circle cx="218" cy="184" r="2.5" fill-opacity="0.8"/>
    <circle cx="238" cy="181" r="2.5" fill-opacity="0.8"/>
    <circle cx="258" cy="184" r="2.5" fill-opacity="0.8"/>
    <circle cx="238" cy="203" r="2" fill-opacity="0.6"/>
    <circle cx="286" cy="183" r="2.5" fill-opacity="0.8"/>
    <circle cx="306" cy="181" r="2.5" fill-opacity="0.8"/>
    <circle cx="326" cy="184" r="2.5" fill-opacity="0.8"/>
    <circle cx="306" cy="203" r="2" fill-opacity="0.6"/>
    <circle cx="214" cy="218" r="2.5" fill-opacity="0.7"/>
    <circle cx="220" cy="236" r="2" fill-opacity="0.6"/>
    <circle cx="330" cy="218" r="2.5" fill-opacity="0.7"/>
    <circle cx="324" cy="236" r="2" fill-opacity="0.6"/>
    <circle cx="272" cy="204" r="2" fill-opacity="0.65"/>
    <circle cx="258" cy="232" r="2" fill-opacity="0.6"/>
    <circle cx="286" cy="232" r="2" fill-opacity="0.6"/>
    <circle cx="262" cy="240" r="2.5" fill-opacity="0.8"/>
    <circle cx="282" cy="240" r="2.5" fill-opacity="0.8"/>
    <circle cx="248" cy="252" r="2.5" fill-opacity="0.85"/>
    <circle cx="260" cy="248" r="2" fill-opacity="0.75"/>
    <circle cx="272" cy="247" r="2" fill-opacity="0.75"/>
    <circle cx="284" cy="248" r="2" fill-opacity="0.75"/>
    <circle cx="296" cy="252" r="2.5" fill-opacity="0.85"/>
    <circle cx="248" cy="268" r="2" fill-opacity="0.7"/>
    <circle cx="260" cy="271" r="2" fill-opacity="0.65"/>
    <circle cx="272" cy="272" r="2" fill-opacity="0.65"/>
    <circle cx="284" cy="271" r="2" fill-opacity="0.65"/>
    <circle cx="296" cy="268" r="2" fill-opacity="0.7"/>
    <circle cx="262" cy="293" r="2" fill-opacity="0.6"/>
    <circle cx="272" cy="298" r="2.5" fill-opacity="0.7"/>
    <circle cx="282" cy="293" r="2" fill-opacity="0.6"/>
    <circle cx="240" cy="302" r="2" fill-opacity="0.5"/>
    <circle cx="304" cy="302" r="2" fill-opacity="0.5"/>
  </g>

  <!-- Left callouts -->
  <g font-family="'DM Mono','Courier New',monospace" font-size="8.5" fill="#C4956A" fill-opacity="0.6" letter-spacing="0.08em">
    <text x="100" y="164">AU1·2</text>
    <line x1="148" y1="162" x2="220" y2="165" stroke="#C4956A" stroke-width="0.5" stroke-opacity="0.35"/>
    <text x="100" y="186">AU5·7</text>
    <line x1="148" y1="184" x2="218" y2="184" stroke="#C4956A" stroke-width="0.5" stroke-opacity="0.35"/>
    <text x="100" y="240">AU38·9</text>
    <line x1="154" y1="238" x2="258" y2="232" stroke="#C4956A" stroke-width="0.5" stroke-opacity="0.35"/>
    <text x="100" y="258">AU12·6</text>
    <line x1="154" y1="256" x2="248" y2="255" stroke="#C4956A" stroke-width="0.5" stroke-opacity="0.35"/>
  </g>

  <!-- Right callouts -->
  <g font-family="'DM Mono','Courier New',monospace" font-size="8.5" fill="#C4956A" fill-opacity="0.6" letter-spacing="0.08em">
    <text x="336" y="164">AU4</text>
    <line x1="336" y1="162" x2="324" y2="165" stroke="#C4956A" stroke-width="0.5" stroke-opacity="0.35"/>
    <text x="336" y="186">AU46</text>
    <line x1="336" y1="184" x2="326" y2="184" stroke="#C4956A" stroke-width="0.5" stroke-opacity="0.35"/>
    <text x="336" y="240">AU39</text>
    <line x1="336" y1="238" x2="324" y2="236" stroke="#C4956A" stroke-width="0.5" stroke-opacity="0.35"/>
    <text x="336" y="258">AU15</text>
    <line x1="336" y1="256" x2="326" y2="254" stroke="#C4956A" stroke-width="0.5" stroke-opacity="0.35"/>
  </g>

  <!-- Right panel -->
  <rect x="468" y="42" width="308" height="356" rx="5" fill="#C4956A" fill-opacity="0.025" stroke="#C4956A" stroke-width="0.6" stroke-opacity="0.18"/>
  <text x="484" y="70" font-family="'DM Mono','Courier New',monospace" font-size="9" fill="#C4956A" fill-opacity="0.55" letter-spacing="0.18em">EMOTIONAL STATE · LIVE</text>
  <line x1="484" y1="78" x2="760" y2="78" stroke="#C4956A" stroke-width="0.5" stroke-opacity="0.2"/>

  <text x="484" y="101" font-family="'DM Mono','Courier New',monospace" font-size="8.5" fill="#C4956A" fill-opacity="0.65" letter-spacing="0.1em">VALENCE</text>
  <text x="756" y="101" font-family="'DM Mono','Courier New',monospace" font-size="8.5" fill="#C4956A" fill-opacity="0.8" text-anchor="end">+0.72</text>
  <rect x="484" y="107" width="272" height="9" rx="2" fill="#C4956A" fill-opacity="0.07"/>
  <rect x="484" y="107" width="196" height="9" rx="2" fill="url(#tvbar1)"/>

  <text x="484" y="136" font-family="'DM Mono','Courier New',monospace" font-size="8.5" fill="#6A9AC4" fill-opacity="0.65" letter-spacing="0.1em">AROUSAL</text>
  <text x="756" y="136" font-family="'DM Mono','Courier New',monospace" font-size="8.5" fill="#6A9AC4" fill-opacity="0.8" text-anchor="end">+0.58</text>
  <rect x="484" y="142" width="272" height="9" rx="2" fill="#6A9AC4" fill-opacity="0.07"/>
  <rect x="484" y="142" width="158" height="9" rx="2" fill="url(#tvbar2)"/>

  <text x="484" y="171" font-family="'DM Mono','Courier New',monospace" font-size="8.5" fill="#9AC46A" fill-opacity="0.65" letter-spacing="0.1em">OPENNESS</text>
  <text x="756" y="171" font-family="'DM Mono','Courier New',monospace" font-size="8.5" fill="#9AC46A" fill-opacity="0.8" text-anchor="end">+0.81</text>
  <rect x="484" y="177" width="272" height="9" rx="2" fill="#9AC46A" fill-opacity="0.07"/>
  <rect x="484" y="177" width="220" height="9" rx="2" fill="url(#tvbar3)"/>

  <line x1="484" y1="202" x2="760" y2="202" stroke="#C4956A" stroke-width="0.5" stroke-opacity="0.15"/>
  <text x="484" y="220" font-family="'DM Mono','Courier New',monospace" font-size="8.5" fill="#C4956A" fill-opacity="0.5" letter-spacing="0.12em">ACTIVE ACTION UNITS</text>

  <!-- AU chips row 1 -->
  <rect x="484" y="228" width="36" height="18" rx="2" fill="#C4956A" fill-opacity="0.12" stroke="#C4956A" stroke-width="0.5" stroke-opacity="0.35"/>
  <text x="502" y="241" font-family="'DM Mono','Courier New',monospace" font-size="8.5" fill="#C4956A" fill-opacity="0.85" text-anchor="middle">AU1</text>
  <rect x="526" y="228" width="36" height="18" rx="2" fill="#C4956A" fill-opacity="0.12" stroke="#C4956A" stroke-width="0.5" stroke-opacity="0.35"/>
  <text x="544" y="241" font-family="'DM Mono','Courier New',monospace" font-size="8.5" fill="#C4956A" fill-opacity="0.85" text-anchor="middle">AU6</text>
  <rect x="568" y="228" width="38" height="18" rx="2" fill="#C4956A" fill-opacity="0.12" stroke="#C4956A" stroke-width="0.5" stroke-opacity="0.35"/>
  <text x="587" y="241" font-family="'DM Mono','Courier New',monospace" font-size="8.5" fill="#C4956A" fill-opacity="0.85" text-anchor="middle">AU12</text>
  <rect x="612" y="228" width="38" height="18" rx="2" fill="#C4956A" fill-opacity="0.12" stroke="#C4956A" stroke-width="0.5" stroke-opacity="0.35"/>
  <text x="631" y="241" font-family="'DM Mono','Courier New',monospace" font-size="8.5" fill="#C4956A" fill-opacity="0.85" text-anchor="middle">AU25</text>
  <rect x="656" y="228" width="36" height="18" rx="2" fill="#C4956A" fill-opacity="0.12" stroke="#C4956A" stroke-width="0.5" stroke-opacity="0.35"/>
  <text x="674" y="241" font-family="'DM Mono','Courier New',monospace" font-size="8.5" fill="#C4956A" fill-opacity="0.85" text-anchor="middle">AU7</text>

  <!-- AU chips row 2 -->
  <rect x="484" y="252" width="36" height="18" rx="2" fill="#C4956A" fill-opacity="0.06" stroke="#C4956A" stroke-width="0.4" stroke-opacity="0.2"/>
  <text x="502" y="265" font-family="'DM Mono','Courier New',monospace" font-size="8.5" fill="#C4956A" fill-opacity="0.45" text-anchor="middle">AU2</text>
  <rect x="526" y="252" width="36" height="18" rx="2" fill="#C4956A" fill-opacity="0.06" stroke="#C4956A" stroke-width="0.4" stroke-opacity="0.2"/>
  <text x="544" y="265" font-family="'DM Mono','Courier New',monospace" font-size="8.5" fill="#C4956A" fill-opacity="0.45" text-anchor="middle">AU4</text>
  <rect x="568" y="252" width="38" height="18" rx="2" fill="#C4956A" fill-opacity="0.12" stroke="#C4956A" stroke-width="0.5" stroke-opacity="0.3"/>
  <text x="587" y="265" font-family="'DM Mono','Courier New',monospace" font-size="8.5" fill="#C4956A" fill-opacity="0.8" text-anchor="middle">AU17</text>
  <rect x="612" y="252" width="36" height="18" rx="2" fill="#C4956A" fill-opacity="0.06" stroke="#C4956A" stroke-width="0.4" stroke-opacity="0.2"/>
  <text x="630" y="265" font-family="'DM Mono','Courier New',monospace" font-size="8.5" fill="#C4956A" fill-opacity="0.45" text-anchor="middle">AU9</text>
  <rect x="654" y="252" width="56" height="18" rx="2" fill="#C4956A" fill-opacity="0.06" stroke="#C4956A" stroke-width="0.4" stroke-opacity="0.2"/>
  <text x="682" y="265" font-family="'DM Mono','Courier New',monospace" font-size="8" fill="#C4956A" fill-opacity="0.4" text-anchor="middle">+37 more</text>

  <line x1="484" y1="284" x2="760" y2="284" stroke="#C4956A" stroke-width="0.5" stroke-opacity="0.15"/>
  <text x="484" y="302" font-family="'DM Mono','Courier New',monospace" font-size="8.5" fill="#C4956A" fill-opacity="0.5" letter-spacing="0.12em">EMOTIONAL FINGERPRINT</text>

  <!-- Radar chart -->
  <g transform="translate(622,354)">
    <line x1="0" y1="0" x2="0" y2="-38" stroke="#C4956A" stroke-opacity="0.18" stroke-width="0.5"/>
    <line x1="0" y1="0" x2="33" y2="-19" stroke="#C4956A" stroke-opacity="0.18" stroke-width="0.5"/>
    <line x1="0" y1="0" x2="33" y2="19" stroke="#C4956A" stroke-opacity="0.18" stroke-width="0.5"/>
    <line x1="0" y1="0" x2="0" y2="38" stroke="#C4956A" stroke-opacity="0.18" stroke-width="0.5"/>
    <line x1="0" y1="0" x2="-33" y2="19" stroke="#C4956A" stroke-opacity="0.18" stroke-width="0.5"/>
    <line x1="0" y1="0" x2="-33" y2="-19" stroke="#C4956A" stroke-opacity="0.18" stroke-width="0.5"/>
    <polygon points="0,-38 33,-19 33,19 0,38 -33,19 -33,-19" fill="none" stroke="#C4956A" stroke-width="0.5" stroke-opacity="0.15"/>
    <polygon points="0,-25 22,-13 22,13 0,25 -22,13 -22,-13" fill="none" stroke="#C4956A" stroke-width="0.4" stroke-opacity="0.1"/>
    <polygon points="0,-32 28,-12 25,17 0,30 -24,15 -20,-21" fill="#C4956A" fill-opacity="0.11" stroke="#C4956A" stroke-width="1.3" stroke-opacity="0.75" filter="url(#tvglow)"/>
    <text x="0" y="-44" font-family="'DM Mono','Courier New',monospace" font-size="7" fill="#C4956A" fill-opacity="0.5" text-anchor="middle">JOY</text>
    <text x="42" y="-21" font-family="'DM Mono','Courier New',monospace" font-size="7" fill="#C4956A" fill-opacity="0.5">TRUST</text>
    <text x="42" y="26" font-family="'DM Mono','Courier New',monospace" font-size="7" fill="#C4956A" fill-opacity="0.5">OPEN</text>
    <text x="0" y="50" font-family="'DM Mono','Courier New',monospace" font-size="7" fill="#C4956A" fill-opacity="0.5" text-anchor="middle">CALM</text>
    <text x="-48" y="26" font-family="'DM Mono','Courier New',monospace" font-size="7" fill="#C4956A" fill-opacity="0.5">SURP</text>
    <text x="-48" y="-21" font-family="'DM Mono','Courier New',monospace" font-size="7" fill="#C4956A" fill-opacity="0.5">CURIO</text>
  </g>

  <rect x="0" y="416" width="800" height="24" fill="#C4956A" fill-opacity="0.04"/>
  <text x="400" y="432" font-family="'DM Mono','Courier New',monospace" font-size="9" fill="#C4956A" fill-opacity="0.4" text-anchor="middle" letter-spacing="0.18em">ECHODEPTH · 42 FACIAL ACTION UNITS · &lt;200ms REAL-TIME RESPONSE</text>
</svg>
