<svg xmlns="http://www.w3.org/2000/svg" viewBox="0 0 600 700">
  <defs>
    <linearGradient id="wabg" x1="0%" y1="0%" x2="100%" y2="100%">
      <stop offset="0%" stop-color="#1F1812"/>
      <stop offset="50%" stop-color="#2A1E14"/>
      <stop offset="100%" stop-color="#161008"/>
    </linearGradient>
    <linearGradient id="wac1" x1="0%" y1="0%" x2="100%" y2="100%">
      <stop offset="0%" stop-color="#2A1E14"/>
      <stop offset="100%" stop-color="#1F1510"/>
    </linearGradient>
    <linearGradient id="wac2" x1="100%" y1="0%" x2="0%" y2="100%">
      <stop offset="0%" stop-color="#1E1A24"/>
      <stop offset="100%" stop-color="#161018"/>
    </linearGradient>
    <linearGradient id="wac3" x1="0%" y1="100%" x2="100%" y2="0%">
      <stop offset="0%" stop-color="#1A2018"/>
      <stop offset="100%" stop-color="#121610"/>
    </linearGradient>
    <linearGradient id="wac4" x1="100%" y1="100%" x2="0%" y2="0%">
      <stop offset="0%" stop-color="#2A1E14"/>
      <stop offset="100%" stop-color="#201812"/>
    </linearGradient>
    <linearGradient id="waheart" x1="0%" y1="0%" x2="100%" y2="100%">
      <stop offset="0%" stop-color="#C4956A"/>
      <stop offset="100%" stop-color="#A07050"/>
    </linearGradient>
    <radialGradient id="wagl1" cx="50%" cy="50%" r="50%">
      <stop offset="0%" stop-color="#C4956A" stop-opacity="0.18"/>
      <stop offset="100%" stop-color="#C4956A" stop-opacity="0"/>
    </radialGradient>
    <radialGradient id="wagl2" cx="50%" cy="50%" r="50%">
      <stop offset="0%" stop-color="#8A6AC4" stop-opacity="0.15"/>
      <stop offset="100%" stop-color="#8A6AC4" stop-opacity="0"/>
    </radialGradient>
    <radialGradient id="wagl3" cx="50%" cy="50%" r="50%">
      <stop offset="0%" stop-color="#6AC4A0" stop-opacity="0.14"/>
      <stop offset="100%" stop-color="#6AC4A0" stop-opacity="0"/>
    </radialGradient>
    <radialGradient id="wagl4" cx="50%" cy="50%" r="50%">
      <stop offset="0%" stop-color="#C4956A" stop-opacity="0.16"/>
      <stop offset="100%" stop-color="#C4956A" stop-opacity="0"/>
    </radialGradient>
    <filter id="waglow" x="-40%" y="-40%" width="180%" height="180%">
      <feGaussianBlur stdDeviation="3" result="blur"/>
      <feMerge><feMergeNode in="blur"/><feMergeNode in="SourceGraphic"/></feMerge>
    </filter>
    <filter id="wasglow" x="-60%" y="-60%" width="220%" height="220%">
      <feGaussianBlur stdDeviation="7" result="blur"/>
      <feMerge><feMergeNode in="blur"/><feMergeNode in="SourceGraphic"/></feMerge>
    </filter>
  </defs>

  <!-- Background -->
  <rect width="600" height="700" fill="url(#wabg)"/>

  <!-- Title -->
  <text x="300" y="44" font-family="'Rajdhani','Barlow','Arial Narrow',sans-serif" font-size="28" font-weight="600" fill="#C4956A" fill-opacity="0.9" text-anchor="middle" letter-spacing="0.06em" filter="url(#waglow)">WHY ATTUNE?</text>
  <line x1="120" y1="56" x2="480" y2="56" stroke="#C4956A" stroke-width="0.6" stroke-opacity="0.3"/>

  <!-- ═══════════════════════════════ -->
  <!-- CARD 1: Emotion-Based Matching -->
  <!-- ═══════════════════════════════ -->
  <rect x="20" y="80" width="268" height="268" rx="8" fill="url(#wac1)" stroke="#C4956A" stroke-width="0.8" stroke-opacity="0.3"/>
  <ellipse cx="154" cy="200" rx="100" ry="90" fill="url(#wagl1)"/>

  <!-- Left silhouette -->
  <ellipse cx="100" cy="160" rx="18" ry="20" fill="#C4956A" fill-opacity="0.22"/>
  <path d="M72,240 Q72,200 100,200 Q128,200 128,240" fill="#C4956A" fill-opacity="0.16"/>
  <!-- Right silhouette -->
  <ellipse cx="208" cy="160" rx="18" ry="20" fill="#C4956A" fill-opacity="0.22"/>
  <path d="M180,240 Q180,200 208,200 Q236,200 236,240" fill="#C4956A" fill-opacity="0.16"/>

  <!-- ECG line -->
  <polyline points="116,182 126,182 131,165 138,198 145,158 152,198 158,171 163,182 176,182 186,182"
    stroke="#C4956A" stroke-width="1.8" fill="none" stroke-linecap="round" stroke-linejoin="round"
    stroke-opacity="0.9" filter="url(#waglow)"/>

  <!-- Heart -->
  <path d="M154,196 C154,196 138,183 138,173 C138,166 143,161 154,171 C165,161 170,166 170,173 C170,183 154,196 154,196Z"
    fill="url(#waheart)" fill-opacity="0.85" filter="url(#waglow)"/>

  <!-- Emotion dots -->
  <circle cx="93" cy="140" r="3" fill="#C4956A" fill-opacity="0.6"/>
  <circle cx="103" cy="135" r="2" fill="#C4956A" fill-opacity="0.4"/>
  <circle cx="113" cy="138" r="2.5" fill="#C4956A" fill-opacity="0.5"/>
  <circle cx="195" cy="135" r="3" fill="#C4956A" fill-opacity="0.6"/>
  <circle cx="207" cy="140" r="2" fill="#C4956A" fill-opacity="0.4"/>
  <circle cx="218" cy="137" r="2.5" fill="#C4956A" fill-opacity="0.5"/>

  <!-- Card 1 label bar -->
  <rect x="20" y="314" width="268" height="34" rx="0" fill="#C4956A" fill-opacity="0.07"/>
  <rect x="20" y="314" width="268" height="1" fill="#C4956A" fill-opacity="0.2"/>
  <text x="154" y="337" font-family="'DM Mono','Courier New',monospace" font-size="11" fill="#C4956A" fill-opacity="0.9" text-anchor="middle" letter-spacing="0.14em">EMOTION-BASED MATCHING</text>

  <!-- ═══════════════════════════ -->
  <!-- CARD 2: Deep Compatibility -->
  <!-- ═══════════════════════════ -->
  <rect x="312" y="80" width="268" height="268" rx="8" fill="url(#wac2)" stroke="#8A6AC4" stroke-width="0.8" stroke-opacity="0.25"/>
  <ellipse cx="446" cy="200" rx="100" ry="90" fill="url(#wagl2)"/>

  <!-- Brain shape -->
  <path d="M390,160 C385,153 380,144 382,135 C384,125 393,121 402,125 C407,118 416,116 422,121 C428,115 438,115 442,123 C450,119 458,125 457,135 C462,141 462,151 457,158 C454,165 450,170 446,171 C442,172 438,170 434,168 C430,170 425,172 420,171 C415,172 410,170 406,168 C401,166 395,163 390,160Z"
    fill="#8A6AC4" fill-opacity="0.18" stroke="#8A6AC4" stroke-width="1.2" stroke-opacity="0.5" filter="url(#waglow)"/>
  <!-- Brain fissures -->
  <path d="M416,123 C416,138 412,151 416,165" stroke="#8A6AC4" stroke-width="0.8" fill="none" stroke-opacity="0.45"/>
  <path d="M395,138 C402,143 408,148 404,158" stroke="#8A6AC4" stroke-width="0.7" fill="none" stroke-opacity="0.35"/>
  <path d="M435,133 C430,141 434,150 430,158" stroke="#8A6AC4" stroke-width="0.7" fill="none" stroke-opacity="0.35"/>

  <!-- Arrow -->
  <line x1="460" y1="158" x2="478" y2="158" stroke="#C4956A" stroke-width="1.2" stroke-opacity="0.5"/>
  <path d="M475,154 L481,158 L475,162" fill="none" stroke="#C4956A" stroke-width="1.2" stroke-opacity="0.5" stroke-linejoin="round"/>

  <!-- Heart -->
  <path d="M498,175 C498,175 480,161 480,150 C480,142 486,136 498,147 C510,136 516,142 516,150 C516,161 498,175 498,175Z"
    fill="url(#waheart)" fill-opacity="0.75" filter="url(#waglow)"/>

  <!-- Match ring -->
  <circle cx="446" cy="214" r="28" fill="none" stroke="#8A6AC4" stroke-width="1" stroke-opacity="0.2"/>
  <circle cx="446" cy="214" r="28" fill="none" stroke="#C4956A" stroke-width="2" stroke-opacity="0.8"
    stroke-dasharray="132 176" stroke-dashoffset="44" stroke-linecap="round"
    filter="url(#waglow)" transform="rotate(-90 446 214)"/>
  <text x="446" y="218" font-family="'DM Mono','Courier New',monospace" font-size="13" font-weight="bold" fill="#C4956A" fill-opacity="0.9" text-anchor="middle">94%</text>
  <text x="446" y="229" font-family="'DM Mono','Courier New',monospace" font-size="7" fill="#C4956A" fill-opacity="0.5" text-anchor="middle" letter-spacing="0.1em">MATCH</text>

  <!-- Card 2 label bar -->
  <rect x="312" y="314" width="268" height="34" rx="0" fill="#8A6AC4" fill-opacity="0.07"/>
  <rect x="312" y="314" width="268" height="1" fill="#8A6AC4" fill-opacity="0.2"/>
  <text x="446" y="337" font-family="'DM Mono','Courier New',monospace" font-size="11" fill="#C4956A" fill-opacity="0.9" text-anchor="middle" letter-spacing="0.14em">DEEP COMPATIBILITY</text>

  <!-- ════════════════════════ -->
  <!-- CARD 3: Psychology-Driven -->
  <!-- ════════════════════════ -->
  <rect x="20" y="368" width="268" height="268" rx="8" fill="url(#wac3)" stroke="#6AC4A0" stroke-width="0.8" stroke-opacity="0.25"/>
  <ellipse cx="154" cy="480" rx="100" ry="90" fill="url(#wagl3)"/>

  <!-- Left head silhouette -->
  <path d="M88,460 C88,434 103,418 120,418 C125,418 130,419 134,421 L134,460 C134,470 128,477 120,480 C112,483 104,480 96,473 C91,468 88,464 88,460Z"
    fill="#6AC4A0" fill-opacity="0.1" stroke="#6AC4A0" stroke-width="1" stroke-opacity="0.35"/>
  <!-- Right head silhouette -->
  <path d="M220,460 C220,434 205,418 188,418 C183,418 178,419 174,421 L174,460 C174,470 180,477 188,480 C196,483 204,480 212,473 C217,468 220,464 220,460Z"
    fill="#6AC4A0" fill-opacity="0.1" stroke="#6AC4A0" stroke-width="1" stroke-opacity="0.35"/>

  <!-- Stars inside heads -->
  <circle cx="108" cy="433" r="1.5" fill="#C4956A" fill-opacity="0.55"/>
  <circle cx="116" cy="441" r="1" fill="#C4956A" fill-opacity="0.45"/>
  <circle cx="122" cy="428" r="2" fill="#C4956A" fill-opacity="0.55"/>
  <circle cx="128" cy="445" r="1.5" fill="#C4956A" fill-opacity="0.5"/>
  <circle cx="112" cy="453" r="1" fill="#C4956A" fill-opacity="0.4"/>
  <circle cx="125" cy="435" r="1" fill="#C4956A" fill-opacity="0.4"/>
  <circle cx="198" cy="433" r="1.5" fill="#C4956A" fill-opacity="0.55"/>
  <circle cx="190" cy="441" r="1" fill="#C4956A" fill-opacity="0.45"/>
  <circle cx="186" cy="428" r="2" fill="#C4956A" fill-opacity="0.55"/>
  <circle cx="182" cy="445" r="1.5" fill="#C4956A" fill-opacity="0.5"/>
  <circle cx="195" cy="453" r="1" fill="#C4956A" fill-opacity="0.4"/>
  <circle cx="183" cy="435" r="1" fill="#C4956A" fill-opacity="0.4"/>

  <!-- Central heart -->
  <path d="M154,472 C154,472 136,457 136,446 C136,438 142,432 154,443 C166,432 172,438 172,446 C172,457 154,472 154,472Z"
    fill="url(#waheart)" fill-opacity="0.8" filter="url(#wasglow)"/>

  <!-- Orbiting dots -->
  <circle cx="154" cy="423" r="2.5" fill="#C4956A" fill-opacity="0.5" filter="url(#waglow)"/>
  <circle cx="178" cy="437" r="2" fill="#6AC4A0" fill-opacity="0.5"/>
  <circle cx="130" cy="437" r="2" fill="#6AC4A0" fill-opacity="0.5"/>

  <!-- VAD mini bars -->
  <text x="40" y="506" font-family="'DM Mono','Courier New',monospace" font-size="7.5" fill="#6AC4A0" fill-opacity="0.6" letter-spacing="0.08em">V</text>
  <rect x="52" y="499" width="90" height="6" rx="2" fill="#6AC4A0" fill-opacity="0.08"/>
  <rect x="52" y="499" width="72" height="6" rx="2" fill="#6AC4A0" fill-opacity="0.45"/>
  <text x="40" y="520" font-family="'DM Mono','Courier New',monospace" font-size="7.5" fill="#6AC4A0" fill-opacity="0.6" letter-spacing="0.08em">A</text>
  <rect x="52" y="513" width="90" height="6" rx="2" fill="#6AC4A0" fill-opacity="0.08"/>
  <rect x="52" y="513" width="54" height="6" rx="2" fill="#6AC4A0" fill-opacity="0.38"/>
  <text x="40" y="534" font-family="'DM Mono','Courier New',monospace" font-size="7.5" fill="#6AC4A0" fill-opacity="0.6" letter-spacing="0.08em">D</text>
  <rect x="52" y="527" width="90" height="6" rx="2" fill="#C4956A" fill-opacity="0.08"/>
  <rect x="52" y="527" width="80" height="6" rx="2" fill="#C4956A" fill-opacity="0.45"/>

  <text x="154" y="553" font-family="'DM Mono','Courier New',monospace" font-size="8" fill="#6AC4A0" fill-opacity="0.35" text-anchor="middle" letter-spacing="0.1em">42 FACIAL ACTION UNITS</text>

  <!-- Card 3 label bar -->
  <rect x="20" y="602" width="268" height="34" rx="0" fill="#6AC4A0" fill-opacity="0.07"/>
  <rect x="20" y="602" width="268" height="1" fill="#6AC4A0" fill-opacity="0.2"/>
  <text x="154" y="625" font-family="'DM Mono','Courier New',monospace" font-size="11" fill="#C4956A" fill-opacity="0.9" text-anchor="middle" letter-spacing="0.14em">PSYCHOLOGY-DRIVEN</text>

  <!-- ══════════════════════════════ -->
  <!-- CARD 4: Meaningful Connections -->
  <!-- ══════════════════════════════ -->
  <rect x="312" y="368" width="268" height="268" rx="8" fill="url(#wac4)" stroke="#C4956A" stroke-width="0.8" stroke-opacity="0.25"/>
  <ellipse cx="446" cy="480" rx="100" ry="90" fill="url(#wagl4)"/>

  <!-- Candlelight glow -->
  <ellipse cx="446" cy="492" rx="50" ry="35" fill="#C4956A" fill-opacity="0.06"/>
  <ellipse cx="446" cy="492" rx="25" ry="18" fill="#C4956A" fill-opacity="0.08"/>

  <!-- Table -->
  <ellipse cx="446" cy="514" rx="60" ry="12" fill="none" stroke="#C4956A" stroke-width="0.8" stroke-opacity="0.35"/>

  <!-- Candle body -->
  <rect x="441" y="482" width="10" height="28" rx="2" fill="#C4956A" fill-opacity="0.28" stroke="#C4956A" stroke-width="0.5" stroke-opacity="0.4"/>
  <!-- Flame -->
  <path d="M446,476 C443,470 440,464 446,458 C452,464 449,470 446,476Z" fill="#C4956A" fill-opacity="0.8" filter="url(#wasglow)"/>
  <path d="M446,474 C444,470 443,466 446,462 C449,466 448,470 446,474Z" fill="#F0C080" fill-opacity="0.7"/>

  <!-- Left person -->
  <ellipse cx="395" cy="458" rx="15" ry="17" fill="#C4956A" fill-opacity="0.2"/>
  <path d="M376,514 Q376,484 395,484 Q414,484 418,514" fill="#C4956A" fill-opacity="0.14"/>
  <path d="M406,473 Q412,481 418,485" stroke="#C4956A" stroke-width="1.5" fill="none" stroke-opacity="0.28" stroke-linecap="round"/>

  <!-- Right person -->
  <ellipse cx="497" cy="458" rx="15" ry="17" fill="#C4956A" fill-opacity="0.2"/>
  <path d="M478,514 Q478,484 497,484 Q516,484 516,514" fill="#C4956A" fill-opacity="0.14"/>
  <path d="M486,473 Q480,481 474,485" stroke="#C4956A" stroke-width="1.5" fill="none" stroke-opacity="0.28" stroke-linecap="round"/>

  <!-- Glasses on table -->
  <ellipse cx="420" cy="515" rx="8" ry="4" fill="none" stroke="#C4956A" stroke-width="0.8" stroke-opacity="0.35"/>
  <ellipse cx="472" cy="515" rx="8" ry="4" fill="none" stroke="#C4956A" stroke-width="0.8" stroke-opacity="0.35"/>

  <!-- Spark dots between figures -->
  <circle cx="430" cy="463" r="1.5" fill="#C4956A" fill-opacity="0.5"/>
  <circle cx="440" cy="456" r="1" fill="#C4956A" fill-opacity="0.45"/>
  <circle cx="452" cy="456" r="1" fill="#C4956A" fill-opacity="0.45"/>
  <circle cx="462" cy="463" r="1.5" fill="#C4956A" fill-opacity="0.5"/>
  <circle cx="446" cy="450" r="2" fill="#C4956A" fill-opacity="0.55" filter="url(#waglow)"/>

  <!-- Small heart above flame -->
  <path d="M446,443 C446,443 440,438 440,434 C440,430 443,428 446,431 C449,428 452,430 452,434 C452,438 446,443 446,443Z"
    fill="#C4956A" fill-opacity="0.6" filter="url(#waglow)"/>

  <!-- Ambient stars -->
  <circle cx="325" cy="392" r="1" fill="#C4956A" fill-opacity="0.22"/>
  <circle cx="340" cy="407" r="1.5" fill="#C4956A" fill-opacity="0.2"/>
  <circle cx="560" cy="387" r="1" fill="#C4956A" fill-opacity="0.22"/>
  <circle cx="548" cy="402" r="1.5" fill="#C4956A" fill-opacity="0.2"/>

  <!-- Card 4 label bar -->
  <rect x="312" y="602" width="268" height="34" rx="0" fill="#C4956A" fill-opacity="0.07"/>
  <rect x="312" y="602" width="268" height="1" fill="#C4956A" fill-opacity="0.2"/>
  <text x="446" y="625" font-family="'DM Mono','Courier New',monospace" font-size="11" fill="#C4956A" fill-opacity="0.9" text-anchor="middle" letter-spacing="0.14em">MEANINGFUL CONNECTIONS</text>

  <!-- Outer border -->
  <rect x="1" y="1" width="598" height="698" rx="10" fill="none" stroke="#C4956A" stroke-width="0.8" stroke-opacity="0.15"/>
</svg>
